<svg width="1440" height="559" viewBox="0 0 1440 559" fill="none" xmlns="http://www.w3.org/2000/svg">
<path d="M1440 548L1156.57 377.336C1012.16 290.379 843.795 251.693 675.909 266.891V266.891C623.686 271.619 571.124 271.156 518.993 265.51L424.912 255.321C352.812 247.512 282.86 226.04 218.795 192.054V192.054C161.342 161.575 109.519 121.506 65.5603 73.5753L-1 1" stroke="white" stroke-linecap="round"/>
<path d="M1441 558L1157.57 387.336C1013.16 300.379 844.795 261.693 676.909 276.891V276.891C624.686 281.619 572.124 281.156 519.993 275.51L425.912 265.321C353.812 257.512 283.86 236.04 219.795 202.054V202.054C162.342 171.575 110.519 131.506 66.5603 83.5753L0 11" stroke="#339480" stroke-linecap="round"/>
</svg>
