<svg width="49" height="48" viewBox="0 0 49 48" fill="none" xmlns="http://www.w3.org/2000/svg">
<path d="M48.333 24.5C48.333 37.4787 37.5878 48 24.333 48C11.0782 48 0.333008 37.4787 0.333008 24.5C0.333008 11.5213 11.0782 1 24.333 1C37.5878 1 48.333 11.5213 48.333 24.5Z" fill="#595959"/>
<path d="M48.333 23.5C48.333 36.4787 37.5878 47 24.333 47C11.0782 47 0.333008 36.4787 0.333008 23.5C0.333008 10.5213 11.0782 0 24.333 0C37.5878 0 48.333 10.5213 48.333 23.5Z" fill="#339480"/>
<path d="M23.333 23C22.0795 23 23.333 21.9308 23.333 23L24.333 22L20.333 16L37.833 11.5L47.333 30C43.7313 42.4676 30.7683 49.7161 18.2605 46.2565L17.333 46C16.5624 46.4474 11.6036 37.4474 10.833 37L23.333 23Z" fill="#026C56"/>
<rect x="10.333" y="11" width="28" height="28" rx="2" fill="#595959"/>
<rect x="10.333" y="10" width="28" height="28" rx="2" fill="white"/>
<path d="M20.5484 28.5265H16.2896L15.8074 30.219C15.6758 30.6812 15.2535 31 14.7729 31C14.0541 31 13.5375 30.3085 13.7414 29.6192L16.824 19.1973C17.034 18.4872 17.6862 18 18.4267 18C19.1671 18 19.8193 18.4872 20.0293 19.1972L23.1092 29.6098C23.3144 30.3038 22.7943 31 22.0706 31C21.5868 31 21.1617 30.6791 21.0291 30.2137L20.5484 28.5265ZM19.9663 26.4435L18.419 21.0129L16.8718 26.4435H19.9663Z" fill="#339480"/>
<path d="M28.6955 18.0186C29.8189 18.0186 30.8045 18.2852 31.6521 18.8183C32.51 19.3515 33.1687 20.114 33.6283 21.1059C34.0981 22.0854 34.333 23.226 34.333 24.5279C34.333 25.8298 34.0981 26.9704 33.6283 27.9499C33.1687 28.917 32.51 29.6671 31.6521 30.2003C30.8045 30.7334 29.8189 31 28.6955 31H26.9576C25.853 31 24.9576 30.1046 24.9576 29V20.0186C24.9576 18.914 25.853 18.0186 26.9576 18.0186H28.6955ZM28.6189 28.7868C29.7423 28.7868 30.6104 28.4149 31.2232 27.671C31.836 26.927 32.1423 25.8794 32.1423 24.5279C32.1423 23.1764 31.836 22.1226 31.2232 21.3662C30.6104 20.5975 29.7423 20.2132 28.6189 20.2132H27.1023V28.7868H28.6189Z" fill="#339480"/>
</svg>
