<svg width="49" height="48" viewBox="0 0 49 48" fill="none" xmlns="http://www.w3.org/2000/svg">
<path d="M48.6665 24.5C48.6665 37.4787 37.9213 48 24.6665 48C11.4117 48 0.666504 37.4787 0.666504 24.5C0.666504 11.5213 11.4117 1 24.6665 1C37.9213 1 48.6665 11.5213 48.6665 24.5Z" fill="#595959"/>
<path d="M48.6665 24.5C48.6665 37.4787 37.9213 48 24.6665 48C11.4117 48 0.666504 37.4787 0.666504 24.5C0.666504 11.5213 11.4117 1 24.6665 1C37.9213 1 48.6665 11.5213 48.6665 24.5Z" fill="url(#paint0_radial_142_670)" fill-opacity="0.4"/>
<path d="M48.6665 23.5C48.6665 36.4787 37.9213 47 24.6665 47C11.4117 47 0.666504 36.4787 0.666504 23.5C0.666504 10.5213 11.4117 0 24.6665 0C37.9213 0 48.6665 10.5213 48.6665 23.5Z" fill="#339480"/>
<path d="M28.1665 29.9999C26.913 29.9999 28.1665 28.9308 28.1665 29.9999L39.1665 18.9999L46.6665 32.9999L45.8936 34.4094C41.2032 42.9625 31.8787 47.9105 22.1665 46.9999C21.3959 47.4473 13.4371 32.9473 12.6665 32.4999L28.1665 29.9999Z" fill="#026C56"/>
<path d="M36.1358 26.1959C36.2 25.732 36.2322 25.2526 36.2322 24.7423C36.2322 24.2474 36.2 23.7526 36.1197 23.2887L39.3806 20.8454C39.6697 20.6289 39.75 20.2114 39.5733 19.9021L36.4892 14.7681C36.2964 14.4278 35.8948 14.3196 35.5414 14.4278L31.7023 15.9124C30.8991 15.3248 30.0477 14.8299 29.1 14.4588L28.5217 10.5309C28.4575 10.1598 28.1362 9.89691 27.7507 9.89691H21.5823C21.1968 9.89691 20.8916 10.1598 20.8274 10.5309L20.2491 14.4588C19.3013 14.8299 18.4339 15.3402 17.6468 15.9124L13.8076 14.4278C13.4543 14.3041 13.0527 14.4278 12.8599 14.7681L9.7918 19.9021C9.59904 20.2268 9.66329 20.6289 9.98456 20.8454L13.2454 23.2887C13.1651 23.7526 13.1009 24.2629 13.1009 24.7423C13.1009 25.2217 13.133 25.732 13.2133 26.1959L9.95243 28.6392C9.66329 28.8557 9.58297 29.2732 9.75967 29.5825L12.8438 34.7165C13.0366 35.0567 13.4382 35.165 13.7916 35.0567L17.6307 33.5722C18.4339 34.1598 19.2853 34.6547 20.233 35.0258L20.8113 38.9536C20.8916 39.3248 21.1968 39.5877 21.5823 39.5877H27.7507C28.1362 39.5877 28.4575 39.3248 28.5057 38.9536L29.0839 35.0258C30.0317 34.6547 30.8991 34.1598 31.6862 33.5722L35.5254 35.0567C35.8788 35.1804 36.2803 35.0567 36.4731 34.7165L39.5573 29.5825C39.75 29.2423 39.6697 28.8557 39.3645 28.6392L36.1358 26.1959ZM24.6665 30.3093C21.486 30.3093 18.8837 27.8041 18.8837 24.7423C18.8837 21.6804 21.486 19.1753 24.6665 19.1753C27.8471 19.1753 30.4493 21.6804 30.4493 24.7423C30.4493 27.8041 27.8471 30.3093 24.6665 30.3093Z" fill="#595959"/>
<path d="M36.1358 25.2062C36.2 24.7423 36.2322 24.2629 36.2322 23.7526C36.2322 23.2578 36.2 22.7629 36.1197 22.299L39.3806 19.8557C39.6697 19.6392 39.75 19.2217 39.5733 18.9124L36.4892 13.7784C36.2964 13.4382 35.8948 13.3299 35.5414 13.4382L31.7023 14.9227C30.8991 14.3351 30.0477 13.8402 29.1 13.4691L28.5217 9.54125C28.4575 9.17011 28.1362 8.90723 27.7507 8.90723H21.5823C21.1968 8.90723 20.8916 9.17011 20.8274 9.54125L20.2491 13.4691C19.3013 13.8402 18.4339 14.3505 17.6468 14.9227L13.8076 13.4382C13.4543 13.3144 13.0527 13.4382 12.8599 13.7784L9.7918 18.9124C9.59904 19.2371 9.66329 19.6392 9.98456 19.8557L13.2454 22.299C13.1651 22.7629 13.1009 23.2732 13.1009 23.7526C13.1009 24.232 13.133 24.7423 13.2133 25.2062L9.95243 27.6495C9.66329 27.866 9.58297 28.2835 9.75967 28.5928L12.8438 33.7268C13.0366 34.067 13.4382 34.1753 13.7916 34.067L17.6307 32.5825C18.4339 33.1701 19.2853 33.665 20.233 34.0361L20.8113 37.964C20.8916 38.3351 21.1968 38.598 21.5823 38.598H27.7507C28.1362 38.598 28.4575 38.3351 28.5057 37.964L29.0839 34.0361C30.0317 33.665 30.8991 33.1701 31.6862 32.5825L35.5254 34.067C35.8788 34.1908 36.2803 34.067 36.4731 33.7268L39.5573 28.5928C39.75 28.2526 39.6697 27.866 39.3645 27.6495L36.1358 25.2062ZM24.6665 29.3196C21.486 29.3196 18.8837 26.8145 18.8837 23.7526C18.8837 20.6907 21.486 18.1856 24.6665 18.1856C27.8471 18.1856 30.4493 20.6907 30.4493 23.7526C30.4493 26.8145 27.8471 29.3196 24.6665 29.3196Z" fill="white"/>
<defs>
<radialGradient id="paint0_radial_142_670" cx="0" cy="0" r="1" gradientUnits="userSpaceOnUse" gradientTransform="translate(35.8505 13.69) rotate(108.054) scale(36.0868 22.3637)">
<stop stop-color="white"/>
<stop offset="1" stop-color="white" stop-opacity="0"/>
</radialGradient>
</defs>
</svg>
