<svg width="48" height="48" viewBox="0 0 48 48" fill="none" xmlns="http://www.w3.org/2000/svg">
<path d="M48 24.5C48 37.4787 37.2548 48 24 48C10.7452 48 0 37.4787 0 24.5C0 11.5213 10.7452 1 24 1C37.2548 1 48 11.5213 48 24.5Z" fill="#595959"/>
<path d="M48 24.5C48 37.4787 37.2548 48 24 48C10.7452 48 0 37.4787 0 24.5C0 11.5213 10.7452 1 24 1C37.2548 1 48 11.5213 48 24.5Z" fill="url(#paint0_radial_142_677)" fill-opacity="0.4"/>
<path d="M48 23.5C48 36.4787 37.2548 47 24 47C10.7452 47 0 36.4787 0 23.5C0 10.5213 10.7452 0 24 0C37.2548 0 48 10.5213 48 23.5Z" fill="#339480"/>
<path d="M13 16C11.7465 16 13 14.9308 13 16H18L23 23L24 22L20 16L28.5 11L31.5 16.5L38.5 18.9999L46 32.9999L45.2271 34.4094C40.5367 42.9625 31.2122 47.9104 21.5 46.9999C20.7294 47.4473 11.7706 33.4473 11 32.9999L14 26L11 23L13 16Z" fill="#026C56"/>
<circle cx="24" cy="36" r="5" fill="#595959"/>
<circle cx="24" cy="25" r="5" fill="#595959"/>
<circle cx="24" cy="14" r="5" fill="#595959"/>
<circle cx="34" cy="20" r="5" fill="#595959"/>
<circle cx="34" cy="31" r="5" fill="#595959"/>
<circle cx="14" cy="20" r="5" fill="#595959"/>
<circle cx="14" cy="31" r="5" fill="#595959"/>
<circle cx="24" cy="35" r="5" fill="white"/>
<circle cx="24" cy="24" r="5" fill="white"/>
<circle cx="24" cy="13" r="5" fill="white"/>
<circle cx="34" cy="19" r="5" fill="white"/>
<circle cx="34" cy="30" r="5" fill="white"/>
<circle cx="14" cy="19" r="5" fill="white"/>
<circle cx="14" cy="30" r="5" fill="white"/>
<defs>
<radialGradient id="paint0_radial_142_677" cx="0" cy="0" r="1" gradientUnits="userSpaceOnUse" gradientTransform="translate(35.184 13.69) rotate(108.054) scale(36.0868 22.3637)">
<stop stop-color="white"/>
<stop offset="1" stop-color="white" stop-opacity="0"/>
</radialGradient>
</defs>
</svg>
