<svg width="48" height="48" viewBox="0 0 48 48" fill="none" xmlns="http://www.w3.org/2000/svg">
<path d="M48 24.5C48 37.4787 37.2548 48 24 48C10.7452 48 0 37.4787 0 24.5C0 11.5213 10.7452 1 24 1C37.2548 1 48 11.5213 48 24.5Z" fill="#595959"/>
<path d="M48 23.5C48 36.4787 37.2548 47 24 47C10.7452 47 0 36.4787 0 23.5C0 10.5213 10.7452 0 24 0C37.2548 0 48 10.5213 48 23.5Z" fill="#339480"/>
<path d="M27 10.5C25.7465 10.5 27 9.4308 27 10.5L45 34.5L44.6513 35.1657C41.4196 41.3354 35.401 45.559 28.5 46.5C27.7294 46.9474 23.7706 38.9474 23 38.5L27 10.5Z" fill="#026C56"/>
<path d="M21 15.1317C19.8954 15.1317 19 14.2363 19 13.1317V12C19 10.8954 19.8954 10 21 10H26C27.1046 10 28 10.8954 28 12V37C28 38.1046 27.1046 39 26 39H24.6224C23.5178 39 22.6224 38.1046 22.6224 37V15.1317H21Z" fill="white"/>
</svg>
