<svg width="48" height="48" viewBox="0 0 48 48" fill="none" xmlns="http://www.w3.org/2000/svg">
<path d="M48 24.5C48 37.4787 37.2548 48 24 48C10.7452 48 0 37.4787 0 24.5C0 11.5213 10.7452 1 24 1C37.2548 1 48 11.5213 48 24.5Z" fill="#595959"/>
<path d="M48 23.5C48 36.4787 37.2548 47 24 47C10.7452 47 0 36.4787 0 23.5C0 10.5213 10.7452 0 24 0C37.2548 0 48 10.5213 48 23.5Z" fill="#339480"/>
<path d="M31.5 15L45 35L44.7075 35.4875C40.2607 42.8989 32.1377 47.3085 23.5 47.0001V47.0001C22.7294 47.4474 16.2706 38.9474 15.5 38.5L25.5 27.5L31.5 15Z" fill="#026C56"/>
<path d="M16.0343 33.1605C18.4909 31.0562 20.4485 29.307 21.9071 27.9129C23.3657 26.4925 24.5811 25.0195 25.5535 23.4939C26.5259 21.9683 27.0121 20.4689 27.0121 18.9959C27.0121 17.6544 26.7051 16.6023 26.0909 15.8395C25.4768 15.0766 24.53 14.6952 23.2505 14.6952C21.971 14.6952 20.9859 15.1424 20.2949 16.0367C20.0395 16.3577 19.8295 16.7236 19.665 17.1345C19.1398 18.4462 18.0872 19.6272 16.6743 19.6272V19.6272C15.2116 19.6272 14.0011 18.4037 14.3136 16.9747C14.725 15.0938 15.5289 13.5843 16.7253 12.4463C18.4653 10.8154 20.666 10 23.3273 10C26.2444 10 28.4835 10.8023 30.0444 12.4068C31.6054 13.985 32.3859 16.0762 32.3859 18.6803C32.3859 20.732 31.8485 22.6916 30.7737 24.5592C29.699 26.4268 28.4707 28.0576 27.0889 29.4517C25.7071 30.8195 23.903 32.4766 21.6768 34.4231H30.7116C31.9754 34.4231 33 35.4477 33 36.7116V36.7116C33 37.9754 31.9754 39 30.7116 39H16.8575C15.3006 39 14.0384 37.7378 14.0384 36.1809V36.1809C14.0384 35.365 14.3918 34.5892 15.0074 34.0538L16.0343 33.1605Z" fill="white"/>
</svg>
