<svg width="48" height="48" viewBox="0 0 48 48" fill="none" xmlns="http://www.w3.org/2000/svg">
<path d="M48 24.5C48 37.4787 37.2548 48 24 48C10.7452 48 0 37.4787 0 24.5C0 11.5213 10.7452 1 24 1C37.2548 1 48 11.5213 48 24.5Z" fill="#595959"/>
<path d="M48 23.5C48 36.4787 37.2548 47 24 47C10.7452 47 0 36.4787 0 23.5C0 10.5213 10.7452 0 24 0C37.2548 0 48 10.5213 48 23.5Z" fill="#339480"/>
<path d="M32.5 14.5L45.5 34L44.6418 35.4482C40.2393 42.8774 32.1302 47.3082 23.5 47.0001V47.0001C22.7294 47.4474 16.7706 36.9474 16 36.5L29.5 36L28.5 25L32.5 14.5Z" fill="#026C56"/>
<path d="M17.3483 18.36C15.7444 18.36 14.4041 16.9839 14.938 15.4714C15.4015 14.1582 16.1555 13.0677 17.2 12.2C18.96 10.7333 21.2667 10 24.12 10C26.0667 10 27.7333 10.3467 29.12 11.04C30.5067 11.7067 31.5467 12.6267 32.24 13.8C32.96 14.9467 33.32 16.2533 33.32 17.72C33.32 19.4 32.88 20.8267 32 22C31.1467 23.1467 30.12 23.92 28.92 24.32V24.48C30.4667 24.96 31.6667 25.8133 32.52 27.04C33.4 28.2667 33.84 29.84 33.84 31.76C33.84 33.36 33.4667 34.7867 32.72 36.04C32 37.2933 30.92 38.28 29.48 39C28.0667 39.6933 26.36 40.04 24.36 40.04C21.3467 40.04 18.8933 39.28 17 37.76C15.7545 36.7601 14.8955 35.4485 14.4232 33.8254C13.9921 32.3437 15.2813 31.04 16.8244 31.04V31.04C18.2859 31.04 19.3752 32.2962 20.1855 33.5125C20.35 33.7594 20.5415 33.9885 20.76 34.2C21.6133 34.9733 22.7733 35.36 24.24 35.36C25.6 35.36 26.64 34.9867 27.36 34.24C28.1067 33.4667 28.48 32.48 28.48 31.28C28.48 29.68 27.9733 28.5333 26.96 27.84C26.2916 27.3827 24.8751 27.0762 23.3759 26.9205C22.1124 26.7893 21.08 25.7703 21.08 24.5V24.5C21.08 23.2297 22.1174 22.2288 23.3717 22.0285C26.0261 21.6047 27.92 20.3952 27.92 18.4C27.92 17.2533 27.5733 16.36 26.88 15.72C26.2133 15.08 25.24 14.76 23.96 14.76C22.7067 14.76 21.7333 15.1067 21.04 15.8C20.96 15.88 20.8841 15.9626 20.8122 16.0479C19.8855 17.1477 18.7865 18.36 17.3483 18.36V18.36Z" fill="white"/>
</svg>
