<svg width="48" height="48" viewBox="0 0 48 48" fill="none" xmlns="http://www.w3.org/2000/svg">
<path d="M48 24.5C48 37.4787 37.2548 48 24 48C10.7452 48 0 37.4787 0 24.5C0 11.5213 10.7452 1 24 1C37.2548 1 48 11.5213 48 24.5Z" fill="#595959"/>
<path d="M48 23.5C48 36.4787 37.2548 47 24 47C10.7452 47 0 36.4787 0 23.5C0 10.5213 10.7452 0 24 0C37.2548 0 48 10.5213 48 23.5Z" fill="#339480"/>
<path d="M32 12L45.5 34L44.6418 35.4482C40.2393 42.8774 32.1302 47.3082 23.5 47.0001V47.0001C22.7294 47.4474 13.7706 31.4474 13 31H28.5V25L32 12Z" fill="#026C56"/>
<path d="M15.3571 32.178C13.4626 32.178 11.9268 30.6422 11.9268 28.7477V28.7477C11.9268 28.0449 12.1426 27.359 12.5452 26.7829L24.1397 10.189C24.888 9.11801 26.1121 8.47998 27.4186 8.47998H28.0168C30.2259 8.47998 32.0168 10.2708 32.0168 12.48V27.176H33.1238C34.505 27.176 35.6248 28.2957 35.6248 29.677V29.677C35.6248 31.0582 34.505 32.178 33.1238 32.178H32.0168V35.13C32.0168 36.715 30.7318 38 29.1468 38V38C27.5617 38 26.2768 36.715 26.2768 35.13V32.178H15.3571ZM26.6458 14.63L18.2408 27.176H26.6458V14.63Z" fill="white"/>
</svg>
