<svg width="48" height="48" viewBox="0 0 48 48" fill="none" xmlns="http://www.w3.org/2000/svg">
<path d="M48 24.5C48 37.4787 37.2548 48 24 48C10.7452 48 0 37.4787 0 24.5C0 11.5213 10.7452 1 24 1C37.2548 1 48 11.5213 48 24.5Z" fill="#595959"/>
<path d="M48 23.5C48 36.4787 37.2548 47 24 47C10.7452 47 0 36.4787 0 23.5C0 10.5213 10.7452 0 24 0C37.2548 0 48 10.5213 48 23.5Z" fill="#339480"/>
<path d="M32.5 11L47 30V30C44.3272 39.8001 35.5582 46.6983 25.4043 46.9884L25 47C25 47 16.7706 36.9474 16 36.5L29.5 36L30 25.5L19.5 23L19 14L32.5 11Z" fill="#026C56"/>
<path d="M33.024 12.5215C33.024 13.9141 31.8951 15.043 30.5025 15.043H19.74V22.054C20.314 21.3433 21.134 20.7693 22.2 20.332C23.266 19.8673 24.4003 19.635 25.603 19.635C27.7897 19.635 29.58 20.1133 30.974 21.07C32.368 22.0267 33.3793 23.2567 34.008 24.76C34.6367 26.236 34.951 27.8213 34.951 29.516C34.951 32.6593 34.049 35.1877 32.245 37.101C30.4683 39.0143 27.9263 39.971 24.619 39.971C21.503 39.971 19.0157 39.192 17.157 37.634C16.136 36.7782 15.3584 35.7781 14.824 34.6336C14.0915 33.0648 15.5001 31.525 17.2314 31.525V31.525C18.6021 31.525 19.7021 32.5767 20.6187 33.5959C20.7976 33.7949 20.9968 33.9793 21.216 34.149C22.0907 34.805 23.1977 35.133 24.537 35.133C26.1497 35.133 27.366 34.6273 28.186 33.616C29.006 32.6047 29.416 31.2653 29.416 29.598C29.416 27.9033 28.9923 26.6187 28.145 25.744C27.325 24.842 26.1087 24.391 24.496 24.391C23.348 24.391 22.3913 24.678 21.626 25.252C21.4707 25.3684 21.3245 25.4928 21.1872 25.625C20.2009 26.5749 19.0662 27.548 17.6968 27.548V27.548C15.9269 27.548 14.492 26.1131 14.492 24.3432V14C14.492 11.7909 16.2829 10 18.492 10H30.5025C31.8951 10 33.024 11.1289 33.024 12.5215V12.5215Z" fill="white"/>
</svg>
