
<svg width="500" height="188" viewBox="0 0 500 188" fill="none" xmlns="http://www.w3.org/2000/svg">
    <path d="M61.7421 16.0003C66.1588 16.0003 69.7422 12.4169 69.7422 8.00013C69.7422 3.58339 66.1588 0 61.7421 0C57.3253 0 53.7419 3.58339 53.7419 8.00013C53.7419 12.4169 57.3253 16.0003 61.7421 16.0003Z" fill="white"/>
    <path d="M7.32456 38.2507C1.24111 40.7507 -1.59227 47.6675 0.907775 53.751C3.40782 59.8344 10.3246 62.6678 16.4081 60.1678C22.4915 57.6677 25.3249 50.7509 22.8248 44.6675C20.3248 38.6674 13.408 35.7507 7.32456 38.2507Z" fill="white"/>
    <path d="M111.826 30.3339C105.493 15.0003 87.9093 7.66684 72.5757 14.0003C67.8256 15.917 63.8255 19.0004 60.8255 22.6671C55.242 18.3337 47.4919 16.917 40.4918 19.8337C30.0749 24.1671 25.0748 36.084 29.4082 46.5009C30.3249 48.7509 31.6583 50.7509 33.1583 52.4176C25.4082 60.5845 22.7415 72.8347 27.2415 83.9182C33.4083 98.9185 50.6586 106.085 65.6589 99.9185C68.7423 98.6685 71.409 96.9184 73.7424 94.9184C80.3258 89.1683 84.0759 80.6681 83.8259 71.918C87.7426 71.918 91.6593 71.2513 95.4927 69.668C104.743 65.8346 111.076 57.9177 113.243 48.9176C114.66 42.9175 114.326 36.4174 111.826 30.3339Z" fill="white"/>
    <path d="M61.7421 16.0003C66.1588 16.0003 69.7422 12.4169 69.7422 8.00013C69.7422 3.58339 66.1588 0 61.7421 0C57.3253 0 53.7419 3.58339 53.7419 8.00013C53.7419 12.4169 57.3253 16.0003 61.7421 16.0003Z" fill="#00AAFF"/>
    <path d="M7.32456 38.2507C1.24111 40.7507 -1.59227 47.6675 0.907775 53.751C3.40782 59.8344 10.3246 62.6678 16.4081 60.1678C22.4915 57.6677 25.3249 50.7509 22.8248 44.6675C20.3248 38.6674 13.408 35.7507 7.32456 38.2507Z" fill="#00AAFF"/>
    <path d="M57.9922 56.6676C59.9922 60.1676 62.5756 63.0844 65.5757 65.4177C67.0757 59.8343 70.0757 54.8342 74.1591 50.9175C72.0758 49.0008 69.7424 47.4174 67.2424 46.2507C65.4923 50.5841 62.3256 54.3342 57.9922 56.6676Z" fill="#FF7400"/>
    <path d="M83.8259 71.8345C77.1591 71.7512 70.7424 69.5011 65.4923 65.4177C64.6589 68.5011 64.3256 71.6678 64.5756 75.0012C65.0756 82.8347 68.4923 89.8348 73.7424 94.8349C80.4092 89.0848 84.0759 80.5846 83.8259 71.8345Z" fill="#FFEA80"/>
    <path d="M64.5755 75.0012C64.3255 71.6678 64.7422 68.5011 65.4922 65.4177C62.4922 63.0843 59.9088 60.1676 57.9088 56.6676C57.2421 57.0009 56.6587 57.3342 55.9087 57.5842C47.7419 60.9176 38.6584 58.5843 33.075 52.4175C25.3248 60.5843 22.5748 72.8345 27.1582 83.918C33.325 98.9183 50.5753 106.085 65.5756 99.9183C68.5756 98.6683 71.3257 96.9183 73.659 94.9182C68.5756 89.8348 65.0756 82.8347 64.5755 75.0012Z" fill="#FFD400"/>
    <path d="M55.992 57.6677C56.6587 57.4177 57.3254 57.0844 57.9087 56.7511C57.3254 55.6677 56.6587 54.501 56.1587 53.3343C54.8253 50.0843 54.1587 46.7509 53.992 43.4175C50.4086 43.5008 46.7419 44.1675 43.1585 45.5842C39.2417 47.2509 35.825 49.5843 33.075 52.501C38.7417 58.6677 47.8252 61.0011 55.992 57.6677Z" fill="#009500"/>
    <path d="M60.8256 22.7504C55.2422 18.3337 47.4921 17.0003 40.4919 19.9171C30.0751 24.1671 25.1583 36.1674 29.4084 46.5842C30.3251 48.8342 31.6584 50.8343 33.1585 52.501C35.9085 49.5843 39.3252 47.1675 43.242 45.5842C46.742 44.0841 50.4088 43.4175 54.0755 43.4175C53.6588 35.834 56.0755 28.5005 60.8256 22.7504Z" fill="#00B359"/>
    <path d="M67.1588 46.2508C63.0754 44.3341 58.5754 43.2507 53.9919 43.3341C54.1586 46.6675 54.8253 50.0008 56.1586 53.2509C56.6587 54.5009 57.242 55.5843 57.9087 56.6676C62.3254 54.3343 65.4921 50.5842 67.1588 46.2508Z" fill="#005100"/>
    <path d="M67.0757 31.0006C65.659 27.5839 63.4923 24.8339 60.8256 22.7505C56.0755 28.5006 53.6588 35.8341 54.0755 43.3342C58.6589 43.2509 63.159 44.3342 67.2424 46.2509C69.0757 41.5008 69.1591 36.0841 67.0757 31.0006Z" fill="#006209"/>
    <path d="M111.826 30.3339C105.493 15.0003 87.9092 7.66684 72.5756 14.0003C67.8256 15.917 63.8255 19.0004 60.8254 22.6671C63.4922 24.7505 65.7422 27.5839 67.0755 30.9173C69.1589 36.0007 69.0756 41.4174 67.1589 46.1675C69.6589 47.3342 71.9923 48.9176 74.159 50.8343C79.1591 46.1675 85.6592 43.1675 92.9927 42.6675C100.576 42.1674 107.66 44.5008 113.243 48.7509C114.66 42.9175 114.326 36.4174 111.826 30.3339Z" fill="#FF8C1A"/>
    <path d="M92.9928 42.7507C85.6594 43.2507 79.0759 46.2507 74.1592 50.9175C77.3259 53.7509 79.9093 57.3343 81.6593 61.501C83.076 64.9177 83.7427 68.3344 83.826 71.8345C87.7428 71.8345 91.6595 71.1678 95.4929 69.5845C104.743 65.7511 111.076 57.8343 113.243 48.8341C107.66 44.584 100.576 42.2506 92.9928 42.7507Z" fill="#FFC68D"/>
    <path d="M74.1592 50.9175C69.9924 54.8342 66.9924 59.8343 65.5757 65.4177C70.7424 69.5011 77.2426 71.7512 83.9093 71.8345C83.826 68.4178 83.076 64.9177 81.7426 61.501C79.9093 57.3342 77.3259 53.7509 74.1592 50.9175Z" fill="#FFBA80"/>
    <path d="M153.244 69.1679C145.827 61.5844 135.16 57.751 121.16 57.751C120.993 57.751 120.827 57.751 120.66 57.751C123.327 61.9177 124.993 66.8345 125.327 72.0846C125.41 73.1679 125.41 74.3346 125.327 75.418C131.493 76.3346 136.577 79.168 140.494 84.0848C145.244 90.0849 147.66 98.585 147.66 109.585C147.66 120.585 145.244 129.086 140.494 135.086C135.744 141.086 129.327 144.086 121.16 144.086C113.076 144.086 106.576 141.086 101.743 135.086C96.9095 129.086 94.4928 120.585 94.4928 109.585C94.4928 107.752 94.5761 106.085 94.7428 104.418C87.326 104.335 80.4092 101.668 75.1591 97.085C74.5758 101.002 74.2424 105.168 74.2424 109.669C74.2424 127.252 79.2425 140.752 89.1594 150.086C96.5762 157.669 107.243 161.503 121.243 161.503C135.244 161.503 145.91 157.669 153.327 150.086C163.161 140.752 168.161 127.252 168.161 109.669C167.994 91.5849 163.077 78.0847 153.244 69.1679Z" fill="white"/>
    <path d="M233.995 94.7517C239.912 101.002 242.829 110.169 242.829 122.252C242.829 135.002 239.912 144.753 234.162 151.419C228.412 158.086 220.995 161.42 211.911 161.42C206.078 161.42 201.328 160.003 197.494 157.086C195.411 155.503 193.328 153.169 191.328 150.086V187.837H172.577V87.0016H190.661V97.6684C192.744 94.5017 194.911 92.085 197.245 90.2516C201.495 87.0016 206.495 85.4182 212.328 85.4182C220.912 85.4182 228.078 88.5016 233.995 94.7517ZM219.495 108.335C216.912 104.085 212.745 101.918 206.995 101.918C200.078 101.918 195.328 105.169 192.744 111.669C191.411 115.085 190.744 119.502 190.744 124.836C190.744 133.252 192.994 139.169 197.494 142.586C200.161 144.586 203.328 145.586 206.995 145.586C212.328 145.586 216.412 143.586 219.162 139.503C221.912 135.419 223.328 130.002 223.328 123.252C223.328 117.585 222.078 112.669 219.495 108.335Z" fill="white"/>
    <path d="M299.163 88.5015C304.246 90.7516 308.413 94.335 311.663 99.1684C314.663 103.502 316.58 108.419 317.413 114.169C317.913 117.502 318.163 122.252 317.997 128.502H265.329C265.662 135.752 268.162 140.836 272.913 143.753C275.746 145.586 279.246 146.503 283.329 146.503C287.663 146.503 291.163 145.419 293.83 143.169C295.33 142.002 296.58 140.336 297.746 138.169H317.08C316.58 142.419 314.247 146.836 310.08 151.253C303.58 158.336 294.496 161.836 282.829 161.836C273.163 161.836 264.662 158.836 257.329 152.919C249.995 147.003 246.245 137.336 246.245 123.919C246.245 111.419 249.579 101.752 256.246 95.085C262.912 88.4182 271.496 85.0015 282.079 85.0015C288.496 85.0848 294.163 86.2515 299.163 88.5015ZM270.912 104.835C268.246 107.585 266.579 111.335 265.912 116.002H298.496C298.163 111.002 296.496 107.169 293.496 104.585C290.496 102.002 286.746 100.668 282.246 100.668C277.329 100.668 273.579 102.085 270.912 104.835Z" fill="white"/>
    <path d="M381.164 91.1682C385.915 95.085 388.248 101.585 388.248 110.669V159.419H368.914V115.335C368.914 111.502 368.414 108.585 367.414 106.585C365.581 102.835 362.081 101.002 356.914 101.002C350.497 101.002 346.164 103.752 343.83 109.169C342.58 112.085 341.997 115.752 341.997 120.169V159.336H323.08V87.0848H341.414V97.6683C343.83 93.9183 346.164 91.2516 348.247 89.6682C352.164 86.7515 357.081 85.2515 362.997 85.2515C370.331 85.2515 376.414 87.2515 381.164 91.1682Z" fill="white"/>
    <path d="M416.332 159.419H392.332L424.165 109.002L393.915 60.501H418.582L436.249 92.7515L454.333 60.501H478.166L447.916 108.168L480.083 159.419H454.999L436.249 125.669L416.332 159.419Z" fill="white"/>
    <path d="M497.833 158.336C496.417 159.753 494.583 160.503 492.583 160.503C490.583 160.503 488.75 159.753 487.333 158.336C485.916 156.919 485.167 155.086 485.167 153.003C485.167 150.919 485.916 149.169 487.333 147.753C488.75 146.336 490.5 145.586 492.583 145.586C494.667 145.586 496.417 146.336 497.833 147.753C499.25 149.169 500 150.919 500 153.003C500 155.086 499.25 156.919 497.833 158.336ZM488 148.503C486.75 149.753 486.167 151.253 486.167 153.003C486.167 154.836 486.75 156.336 488 157.586C489.25 158.836 490.75 159.503 492.5 159.503C494.25 159.503 495.833 158.92 497 157.586C498.25 156.336 498.833 154.836 498.833 153.003C498.833 151.253 498.25 149.753 497 148.503C495.75 147.253 494.25 146.586 492.5 146.586C490.75 146.669 489.25 147.253 488 148.503ZM492.417 148.919C493.417 148.919 494.167 149.003 494.667 149.253C495.5 149.586 495.917 150.336 495.917 151.336C495.917 152.086 495.667 152.586 495.083 152.919C494.833 153.086 494.417 153.253 493.917 153.336C494.583 153.419 495 153.669 495.333 154.169C495.667 154.586 495.75 155.003 495.75 155.419V156.003C495.75 156.169 495.75 156.419 495.75 156.586C495.75 156.836 495.75 156.919 495.833 157.003L495.917 157.086H494.583V157.003V156.919V156.669V156.003C494.583 155.086 494.333 154.419 493.833 154.086C493.5 153.919 493 153.836 492.25 153.836H491.083V157.086H489.667V148.919H492.417V148.919ZM493.917 150.253C493.583 150.086 493 149.919 492.167 149.919H490.917V152.919H492.25C492.833 152.919 493.333 152.836 493.667 152.753C494.25 152.503 494.5 152.086 494.5 151.503C494.5 150.836 494.333 150.419 493.917 150.253Z" fill="white"/>
</svg>