<svg width="500" height="250" viewBox="0 0 500 250" fill="none" xmlns="http://www.w3.org/2000/svg">
<rect x="29" y="53" width="198" height="143" rx="16" fill="white"/>
<path d="M33 83.4545C33 82.35 33.8954 81.4545 35 81.4545H221C222.105 81.4545 223 82.35 223 83.4545V180C223 186.627 217.627 192 211 192H45C38.3726 192 33 186.627 33 180V83.4545Z" fill="#E6F2F0"/>
<path d="M33 69.4545C33 62.8271 38.3726 57.4545 45 57.4545H211C217.627 57.4545 223 62.8271 223 69.4545V83.0909C223 84.1955 222.105 85.0909 221 85.0909H35C33.8954 85.0909 33 84.1955 33 83.0909V69.4545Z" fill="#5B5B5B"/>
<path d="M33 68C33 61.3726 38.3726 56 45 56H211C217.627 56 223 61.3726 223 68V81.6364C223 82.7409 222.105 83.6364 221 83.6364H35C33.8954 83.6364 33 82.7409 33 81.6364V68Z" fill="#007A61"/>
<rect x="47.6152" y="98.9091" width="160.769" height="32.7273" rx="2" fill="#5B5B5B"/>
<rect x="47.6152" y="97.4545" width="160.769" height="32.7273" rx="2" fill="#007A61"/>
<path d="M125.014 118.154H120.738L120.254 119.843C120.122 120.306 119.698 120.625 119.217 120.625C118.495 120.625 117.976 119.93 118.182 119.238L121.273 108.838C121.485 108.125 122.14 107.636 122.883 107.636C123.627 107.636 124.282 108.125 124.494 108.838L127.582 119.229C127.789 119.926 127.267 120.625 126.54 120.625C126.055 120.625 125.629 120.304 125.496 119.838L125.014 118.154ZM124.429 116.073L122.876 110.647L121.322 116.073H124.429Z" fill="white"/>
<path d="M133.193 107.655C134.321 107.655 135.31 107.921 136.161 108.454C137.023 108.987 137.684 109.749 138.145 110.74C138.617 111.718 138.853 112.858 138.853 114.159C138.853 115.46 138.617 116.599 138.145 117.578C137.684 118.544 137.023 119.294 136.161 119.826C135.31 120.359 134.321 120.625 133.193 120.625H131.44C130.336 120.625 129.44 119.73 129.44 118.625V109.655C129.44 108.55 130.336 107.655 131.44 107.655H133.193ZM133.116 118.414C134.244 118.414 135.115 118.043 135.731 117.299C136.346 116.556 136.653 115.509 136.653 114.159C136.653 112.808 136.346 111.755 135.731 111C135.115 110.232 134.244 109.848 133.116 109.848H131.593V118.414H133.116Z" fill="white"/>
<rect x="149.923" y="138.909" width="58.4615" height="32.7273" rx="2" fill="#5B5B5B"/>
<rect x="149.923" y="137.455" width="58.4615" height="32.7273" rx="2" fill="#007A61"/>
<rect x="47.6152" y="141.818" width="95" height="3.63636" rx="1.81818" fill="#007A61"/>
<rect x="47.6152" y="152.727" width="95" height="3.63636" rx="1.81818" fill="#007A61"/>
<rect x="47.6152" y="163.636" width="95" height="3.63636" rx="1.81818" fill="#007A61"/>
<ellipse cx="88.5385" cy="69.8182" rx="5.84615" ry="5.81818" fill="white"/>
<ellipse cx="71.0005" cy="69.8182" rx="5.84615" ry="5.81818" fill="white"/>
<ellipse cx="53.4614" cy="69.8182" rx="5.84615" ry="5.81818" fill="white"/>
<path d="M176.411 157.84H172.854L172.452 159.245C172.342 159.631 171.989 159.896 171.588 159.896C170.988 159.896 170.557 159.318 170.728 158.742L173.299 150.09C173.475 149.497 174.02 149.091 174.639 149.091C175.257 149.091 175.802 149.497 175.979 150.09L178.548 158.734C178.72 159.314 178.286 159.896 177.681 159.896C177.277 159.896 176.923 159.629 176.812 159.241L176.411 157.84ZM175.925 156.109L174.632 151.595L173.34 156.109H175.925Z" fill="white"/>
<path d="M183.215 149.106C184.153 149.106 184.976 149.328 185.684 149.771C186.401 150.214 186.951 150.848 187.335 151.672C187.727 152.487 187.923 153.435 187.923 154.517C187.923 155.599 187.727 156.547 187.335 157.361C186.951 158.165 186.401 158.788 185.684 159.231C184.976 159.675 184.153 159.896 183.215 159.896H182.093C180.989 159.896 180.093 159.001 180.093 157.896V151.106C180.093 150.002 180.989 149.106 182.093 149.106H183.215ZM183.151 158.057C184.089 158.057 184.814 157.747 185.326 157.129C185.838 156.511 186.094 155.64 186.094 154.517C186.094 153.393 185.838 152.517 185.326 151.889C184.814 151.25 184.089 150.93 183.151 150.93H181.884V158.057H183.151Z" fill="white"/>
<path d="M344 79L349.114 85.9938C349.639 86.7116 349.627 87.6897 349.085 88.3943L344 95" stroke="white" stroke-width="4" stroke-linecap="round"/>
<path d="M344 118L349.114 124.994C349.639 125.712 349.627 126.69 349.085 127.394L344 134" stroke="white" stroke-width="4" stroke-linecap="round"/>
<path d="M344 157L349.114 163.994C349.639 164.712 349.627 165.69 349.085 166.394L344 173" stroke="white" stroke-width="4" stroke-linecap="round"/>
<path d="M351 86.3962L227 86.545" stroke="white" stroke-width="4"/>
<path d="M351 125.396L227 125.545" stroke="white" stroke-width="4"/>
<path d="M351 164.396L227 164.545" stroke="white" stroke-width="4"/>
<circle cx="267.5" cy="86.5" r="13.5" fill="#339480" stroke="white" stroke-width="4"/>
<path d="M269.19 92.2205L271.094 90.5L270.618 86.6195L267.761 85.0919V80H271.094L278.5 90L278.217 90.754C276.583 95.1116 272.415 97.9965 267.761 97.9913C267.395 98.2536 263.367 92.4828 263 92.2205H269.19Z" fill="#007A60"/>
<path d="M267.402 95.8C266.987 95.8 266.651 95.4639 266.651 95.0493V77.9507C266.651 77.5361 266.987 77.2 267.402 77.2C267.817 77.2 268.153 77.5361 268.153 77.9507V95.0493C268.153 95.4639 267.817 95.8 267.402 95.8ZM263.694 93.4403C263.229 93.4403 262.852 93.063 262.852 92.5975C262.852 92.1321 263.229 91.7548 263.694 91.7548H268.671C269.119 91.7548 269.504 91.649 269.824 91.4375C270.144 91.2128 270.394 90.9286 270.573 90.5849C270.752 90.2411 270.842 89.8776 270.842 89.4942C270.842 89.0977 270.752 88.7341 270.573 88.4036C270.406 88.0599 270.163 87.7889 269.843 87.5906C269.536 87.3791 269.158 87.2733 268.71 87.2733H266.174C265.419 87.2733 264.753 87.1147 264.177 86.7974C263.601 86.4669 263.146 86.0175 262.813 85.449C262.493 84.8674 262.333 84.213 262.333 83.4859C262.333 82.7456 262.487 82.078 262.794 81.4832C263.114 80.8883 263.556 80.419 264.119 80.0753C264.695 79.7316 265.355 79.5597 266.098 79.5597H270.959C271.425 79.5597 271.802 79.937 271.802 80.4024C271.802 80.8679 271.425 81.2452 270.959 81.2452H266.27C265.848 81.2452 265.477 81.351 265.156 81.5625C264.836 81.7608 264.593 82.0252 264.427 82.3556C264.26 82.6729 264.177 83.0166 264.177 83.3868C264.177 83.7437 264.254 84.0874 264.407 84.4179C264.574 84.7352 264.811 84.993 265.118 85.1913C265.438 85.3895 265.803 85.4887 266.213 85.4887H268.806C269.612 85.4887 270.304 85.6539 270.88 85.9844C271.456 86.3149 271.898 86.7644 272.205 87.3328C272.513 87.9013 272.666 88.549 272.666 89.2761C272.666 90.0825 272.506 90.803 272.186 91.4375C271.879 92.0588 271.437 92.548 270.861 92.9049C270.285 93.2618 269.625 93.4403 268.883 93.4403H263.694Z" fill="white"/>
<circle cx="267.5" cy="125.5" r="13.5" fill="#339480" stroke="white" stroke-width="4"/>
<path d="M269.19 131.221L271.094 129.5L270.618 125.619L267.761 124.092V119H271.094L278.5 129L278.217 129.754C276.583 134.112 272.415 136.997 267.761 136.991C267.395 137.254 263.367 131.483 263 131.221H269.19Z" fill="#007A60"/>
<path d="M267.402 134.8C266.987 134.8 266.651 134.464 266.651 134.049V116.951C266.651 116.536 266.987 116.2 267.402 116.2C267.817 116.2 268.153 116.536 268.153 116.951V134.049C268.153 134.464 267.817 134.8 267.402 134.8ZM263.694 132.44C263.229 132.44 262.852 132.063 262.852 131.598C262.852 131.132 263.229 130.755 263.694 130.755H268.671C269.119 130.755 269.504 130.649 269.824 130.438C270.144 130.213 270.394 129.929 270.573 129.585C270.752 129.241 270.842 128.878 270.842 128.494C270.842 128.098 270.752 127.734 270.573 127.404C270.406 127.06 270.163 126.789 269.843 126.591C269.536 126.379 269.158 126.273 268.71 126.273H266.174C265.419 126.273 264.753 126.115 264.177 125.797C263.601 125.467 263.146 125.017 262.813 124.449C262.493 123.867 262.333 123.213 262.333 122.486C262.333 121.746 262.487 121.078 262.794 120.483C263.114 119.888 263.556 119.419 264.119 119.075C264.695 118.732 265.355 118.56 266.098 118.56H270.959C271.425 118.56 271.802 118.937 271.802 119.402C271.802 119.868 271.425 120.245 270.959 120.245H266.27C265.848 120.245 265.477 120.351 265.156 120.562C264.836 120.761 264.593 121.025 264.427 121.356C264.26 121.673 264.177 122.017 264.177 122.387C264.177 122.744 264.254 123.087 264.407 123.418C264.574 123.735 264.811 123.993 265.118 124.191C265.438 124.39 265.803 124.489 266.213 124.489H268.806C269.612 124.489 270.304 124.654 270.88 124.984C271.456 125.315 271.898 125.764 272.205 126.333C272.513 126.901 272.666 127.549 272.666 128.276C272.666 129.083 272.506 129.803 272.186 130.438C271.879 131.059 271.437 131.548 270.861 131.905C270.285 132.262 269.625 132.44 268.883 132.44H263.694Z" fill="white"/>
<circle cx="267.5" cy="164.5" r="13.5" fill="#339480" stroke="white" stroke-width="4"/>
<path d="M269.19 170.221L271.094 168.5L270.618 164.619L267.761 163.092V158H271.094L278.5 168L278.217 168.754C276.583 173.112 272.415 175.997 267.761 175.991C267.395 176.254 263.367 170.483 263 170.221H269.19Z" fill="#007A60"/>
<path d="M267.402 173.8C266.987 173.8 266.651 173.464 266.651 173.049V155.951C266.651 155.536 266.987 155.2 267.402 155.2C267.817 155.2 268.153 155.536 268.153 155.951V173.049C268.153 173.464 267.817 173.8 267.402 173.8ZM263.694 171.44C263.229 171.44 262.852 171.063 262.852 170.598C262.852 170.132 263.229 169.755 263.694 169.755H268.671C269.119 169.755 269.504 169.649 269.824 169.438C270.144 169.213 270.394 168.929 270.573 168.585C270.752 168.241 270.842 167.878 270.842 167.494C270.842 167.098 270.752 166.734 270.573 166.404C270.406 166.06 270.163 165.789 269.843 165.591C269.536 165.379 269.158 165.273 268.71 165.273H266.174C265.419 165.273 264.753 165.115 264.177 164.797C263.601 164.467 263.146 164.017 262.813 163.449C262.493 162.867 262.333 162.213 262.333 161.486C262.333 160.746 262.487 160.078 262.794 159.483C263.114 158.888 263.556 158.419 264.119 158.075C264.695 157.732 265.355 157.56 266.098 157.56H270.959C271.425 157.56 271.802 157.937 271.802 158.402C271.802 158.868 271.425 159.245 270.959 159.245H266.27C265.848 159.245 265.477 159.351 265.156 159.562C264.836 159.761 264.593 160.025 264.427 160.356C264.26 160.673 264.177 161.017 264.177 161.387C264.177 161.744 264.254 162.087 264.407 162.418C264.574 162.735 264.811 162.993 265.118 163.191C265.438 163.39 265.803 163.489 266.213 163.489H268.806C269.612 163.489 270.304 163.654 270.88 163.984C271.456 164.315 271.898 164.764 272.205 165.333C272.513 165.901 272.666 166.549 272.666 167.276C272.666 168.083 272.506 168.803 272.186 169.438C271.879 170.059 271.437 170.548 270.861 170.905C270.285 171.262 269.625 171.44 268.883 171.44H263.694Z" fill="white"/>
<circle cx="303.5" cy="86.5" r="15.5" fill="white"/>
<circle cx="303.5" cy="86.5" r="11.5" fill="#339480"/>
<path d="M300.5 80.5L305 86L306.5 80.5L310 87.5L311 85.5L314 91L313.854 91.2918C311.798 95.403 307.596 98 303 98C302.615 98.2575 299.885 93.7575 299.5 93.5L298 86.5L300.5 80.5Z" fill="#007A60"/>
<path d="M300 93L297 87L300 81" stroke="white" stroke-width="1.6" stroke-linecap="round" stroke-linejoin="round"/>
<path d="M308 81L311 87L308 93" stroke="white" stroke-width="1.6" stroke-linecap="round" stroke-linejoin="round"/>
<path d="M306 81L302 93" stroke="white" stroke-width="1.6" stroke-linecap="round" stroke-linejoin="round"/>
<circle cx="303.5" cy="125.5" r="15.5" fill="white"/>
<circle cx="303.5" cy="125.5" r="11.5" fill="#339480"/>
<path d="M300.5 119.5L305 125L306.5 119.5L310 126.5L311 124.5L314 130L313.854 130.292C311.798 134.403 307.596 137 303 137C302.615 137.258 299.885 132.758 299.5 132.5L298 125.5L300.5 119.5Z" fill="#007A60"/>
<path d="M300 132L297 126L300 120" stroke="white" stroke-width="1.6" stroke-linecap="round" stroke-linejoin="round"/>
<path d="M308 120L311 126L308 132" stroke="white" stroke-width="1.6" stroke-linecap="round" stroke-linejoin="round"/>
<path d="M306 120L302 132" stroke="white" stroke-width="1.6" stroke-linecap="round" stroke-linejoin="round"/>
<circle cx="303.5" cy="164.5" r="15.5" fill="white"/>
<circle cx="303.5" cy="164.5" r="11.5" fill="#339480"/>
<path d="M300.5 158.5L305 164L306.5 158.5L310 165.5L311 163.5L314 169L313.854 169.292C311.798 173.403 307.596 176 303 176C302.615 176.258 299.885 171.758 299.5 171.5L298 164.5L300.5 158.5Z" fill="#007A60"/>
<path d="M300 171L297 165L300 159" stroke="white" stroke-width="1.6" stroke-linecap="round" stroke-linejoin="round"/>
<path d="M308 159L311 165L308 171" stroke="white" stroke-width="1.6" stroke-linecap="round" stroke-linejoin="round"/>
<path d="M306 159L302 171" stroke="white" stroke-width="1.6" stroke-linecap="round" stroke-linejoin="round"/>
<circle cx="416" cy="126" r="54" fill="white"/>
<circle cx="416" cy="126" r="50" fill="#007A61"/>
<rect x="384" y="94.8513" width="64" height="20" rx="2" fill="white"/>
<circle cx="394" cy="104.851" r="3" fill="#339480"/>
<rect x="441" y="99.8513" width="2" height="10" rx="1" fill="#339480"/>
<rect x="436" y="99.8513" width="2" height="10" rx="1" fill="#339480"/>
<rect x="431" y="99.8513" width="2" height="10" rx="1" fill="#339480"/>
<rect x="384" y="117.851" width="64" height="20" rx="2" fill="white"/>
<circle cx="394" cy="127.851" r="3" fill="#339480"/>
<rect x="441" y="122.851" width="2" height="10" rx="1" fill="#339480"/>
<rect x="436" y="122.851" width="2" height="10" rx="1" fill="#339480"/>
<rect x="431" y="122.851" width="2" height="10" rx="1" fill="#339480"/>
<path d="M389.2 156.991C388.226 156.991 387.346 156.825 386.56 156.491C385.786 156.158 385.173 155.678 384.72 155.051C384.562 154.833 384.43 154.601 384.326 154.355C383.989 153.564 384.724 152.831 385.583 152.831V152.831C386.392 152.831 386.99 153.552 387.556 154.13C387.577 154.151 387.598 154.171 387.62 154.191C387.993 154.525 388.5 154.691 389.14 154.691C389.793 154.691 390.306 154.538 390.68 154.231C391.053 153.911 391.24 153.498 391.24 152.991C391.24 152.578 391.113 152.238 390.86 151.971C390.606 151.705 390.286 151.498 389.9 151.351C389.526 151.191 389.006 151.018 388.34 150.831C387.433 150.565 386.693 150.305 386.12 150.051C385.56 149.785 385.073 149.391 384.66 148.871C384.26 148.338 384.06 147.631 384.06 146.751C384.06 145.925 384.266 145.205 384.68 144.591C385.093 143.978 385.673 143.511 386.42 143.191C387.166 142.858 388.02 142.691 388.98 142.691C390.42 142.691 391.586 143.045 392.48 143.751C392.96 144.119 393.327 144.566 393.579 145.091C393.962 145.889 393.225 146.671 392.34 146.671H392.276C391.504 146.671 390.885 145.971 390.28 145.491V145.491C389.906 145.171 389.406 145.011 388.78 145.011C388.233 145.011 387.793 145.151 387.46 145.431C387.14 145.711 386.98 146.118 386.98 146.651C386.98 147.025 387.1 147.338 387.34 147.591C387.593 147.831 387.9 148.031 388.26 148.191C388.633 148.338 389.153 148.511 389.82 148.711C390.726 148.978 391.466 149.245 392.04 149.511C392.613 149.778 393.106 150.178 393.52 150.711C393.933 151.245 394.14 151.945 394.14 152.811C394.14 153.558 393.946 154.251 393.56 154.891C393.173 155.531 392.606 156.045 391.86 156.431C391.113 156.805 390.226 156.991 389.2 156.991Z" fill="white"/>
<path d="M406.661 150.156C406.797 151.252 405.892 152.151 404.787 152.151H398.687C398.754 152.951 399.034 153.578 399.527 154.031C400.02 154.485 400.627 154.711 401.347 154.711C402.028 154.711 402.581 154.52 403.004 154.137C403.438 153.744 403.938 153.371 404.523 153.371V153.371C405.552 153.371 406.281 154.39 405.621 155.179C405.369 155.481 405.077 155.759 404.747 156.011C403.84 156.691 402.727 157.031 401.407 157.031C400.34 157.031 399.38 156.798 398.527 156.331C397.687 155.851 397.027 155.178 396.547 154.311C396.08 153.445 395.847 152.445 395.847 151.311C395.847 150.165 396.08 149.158 396.547 148.291C397.014 147.425 397.667 146.758 398.507 146.291C399.347 145.825 400.314 145.591 401.407 145.591C402.46 145.591 403.4 145.818 404.227 146.271C405.067 146.725 405.714 147.371 406.167 148.211C406.408 148.638 406.565 149.385 406.661 150.156ZM403.967 150.271C403.954 149.551 403.694 148.978 403.187 148.551C402.68 148.111 402.06 147.891 401.327 147.891C400.634 147.891 400.047 148.105 399.567 148.531C399.1 148.945 398.814 149.525 398.707 150.271H403.967Z" fill="white"/>
<path d="M411.711 147.491C412.071 146.905 412.537 146.445 413.111 146.111C413.289 146.01 413.475 145.924 413.668 145.853C414.431 145.575 415.111 146.269 415.111 147.081V147.811C415.111 148.22 414.779 148.551 414.371 148.551V148.551C413.491 148.551 412.824 148.758 412.371 149.171C411.931 149.585 411.711 150.305 411.711 151.331V156.851H408.911V147.171C408.911 146.398 409.538 145.771 410.311 145.771V145.771C411.084 145.771 411.711 146.398 411.711 147.171V147.491Z" fill="white"/>
<path d="M421.617 154.271L424.104 146.719C424.291 146.154 424.819 145.771 425.415 145.771V145.771C426.376 145.771 427.042 146.729 426.709 147.63L423.886 155.258C423.532 156.216 422.619 156.851 421.598 156.851V156.851C420.576 156.851 419.662 156.214 419.309 155.255L416.506 147.642C416.171 146.735 416.843 145.771 417.811 145.771V145.771C418.411 145.771 418.944 146.157 419.131 146.727L421.617 154.271Z" fill="white"/>
<path d="M439.269 151.071V151.071C439.269 151.697 438.731 152.151 438.105 152.151H431.089C431.156 152.951 431.436 153.578 431.929 154.031C432.423 154.485 433.029 154.711 433.749 154.711C434.43 154.711 434.983 154.52 435.407 154.137C435.841 153.744 436.34 153.371 436.925 153.371V153.371C437.954 153.371 438.683 154.39 438.023 155.179C437.771 155.481 437.48 155.759 437.149 156.011C436.243 156.691 435.129 157.031 433.809 157.031C432.743 157.031 431.783 156.798 430.929 156.331C430.089 155.851 429.429 155.178 428.949 154.311C428.483 153.445 428.249 152.445 428.249 151.311C428.249 150.165 428.483 149.158 428.949 148.291C429.416 147.425 430.069 146.758 430.909 146.291C431.749 145.825 432.716 145.591 433.809 145.591C434.863 145.591 435.803 145.818 436.629 146.271C437.469 146.725 438.116 147.371 438.569 148.211C439.036 149.038 439.269 149.991 439.269 151.071ZM436.369 150.271C436.356 149.551 436.096 148.978 435.589 148.551C435.083 148.111 434.463 147.891 433.729 147.891C433.036 147.891 432.449 148.105 431.969 148.531C431.503 148.945 431.216 149.525 431.109 150.271H436.369Z" fill="white"/>
<path d="M444.113 147.491C444.473 146.905 444.94 146.445 445.513 146.111C445.692 146.01 445.878 145.924 446.071 145.853C446.833 145.575 447.513 146.269 447.513 147.081V147.811C447.513 148.22 447.182 148.551 446.773 148.551V148.551C445.893 148.551 445.226 148.758 444.773 149.171C444.333 149.585 444.113 150.305 444.113 151.331V156.851H441.313V147.171C441.313 146.398 441.94 145.771 442.713 145.771V145.771C443.486 145.771 444.113 146.398 444.113 147.171V147.491Z" fill="white"/>
</svg>
